<svg width="18" height="19" viewBox="0 0 18 19" fill="none" xmlns="http://www.w3.org/2000/svg">
<path d="M12.3736 2.26514H5.27009C3.30851 2.26514 1.71832 3.88664 1.71832 5.88687V13.1303C1.71832 15.1306 3.30851 16.7521 5.27009 16.7521H12.3736C14.3352 16.7521 15.9254 15.1306 15.9254 13.1303V5.88687C15.9254 3.88664 14.3352 2.26514 12.3736 2.26514Z" stroke="white" stroke-linecap="round" stroke-linejoin="round"/>
<path d="M11.6633 9.05247C11.751 9.6553 11.65 10.271 11.3748 10.8119C11.0995 11.3529 10.664 11.7915 10.1301 12.0655C9.59628 12.3395 8.9913 12.4349 8.40124 12.3381C7.81117 12.2412 7.26607 11.9572 6.84347 11.5262C6.42086 11.0953 6.14227 10.5395 6.04732 9.93777C5.95237 9.33609 6.0459 8.71919 6.3146 8.17483C6.5833 7.63047 7.01349 7.18636 7.54398 6.90568C8.07447 6.625 8.67825 6.52203 9.26944 6.61142C9.87248 6.7026 10.4308 6.98914 10.8618 7.42871C11.2929 7.86827 11.5739 8.43755 11.6633 9.05247Z" stroke="white" stroke-linecap="round" stroke-linejoin="round"/>
<path d="M12.7288 5.52441H12.7363" stroke="white" stroke-linecap="round" stroke-linejoin="round"/>
</svg>
