<svg width="17" height="19" viewBox="0 0 17 19" fill="none" xmlns="http://www.w3.org/2000/svg">
<g clip-path="url(#clip0_1_1700)">
<path d="M15.8267 2.98922C15.1843 3.4785 14.4729 3.85272 13.7201 4.09747C13.3161 3.59587 12.7791 3.24034 12.1818 3.07898C11.5845 2.91762 10.9557 2.95821 10.3805 3.19526C9.80526 3.43231 9.31133 3.85438 8.96552 4.40438C8.6197 4.95439 8.43868 5.6058 8.44693 6.27051V6.99485C7.26793 7.02786 6.09967 6.74554 5.04619 6.17304C3.99272 5.60054 3.08673 4.75563 2.40892 3.71356C2.40892 3.71356 -0.274642 10.2327 5.76337 13.1301C4.38169 14.1427 2.73575 14.6504 1.06714 14.5788C7.10515 18.2005 14.4849 14.5788 14.4849 6.24877C14.4843 6.04701 14.4664 5.84574 14.4313 5.64757C15.116 4.91851 15.5992 3.99802 15.8267 2.98922V2.98922Z" stroke="white" stroke-linecap="round" stroke-linejoin="round"/>
</g>
<defs>
<clipPath id="clip0_1_1700">
<rect width="16.1014" height="17.3843" fill="white" transform="translate(0.39624 0.816406)"/>
</clipPath>
</defs>
</svg>
