<svg width="18" height="19" viewBox="0 0 18 19" fill="none" xmlns="http://www.w3.org/2000/svg">
<g clip-path="url(#clip0_1_1702)">
<path d="M16.5593 5.46678C16.4749 5.12302 16.3031 4.80804 16.0611 4.55368C15.8191 4.29931 15.5156 4.11456 15.1812 4.01809C13.9594 3.71387 9.07218 3.71387 9.07218 3.71387C9.07218 3.71387 4.18494 3.71387 2.96313 4.04707C2.62873 4.14354 2.32522 4.32829 2.08325 4.58265C1.84128 4.83702 1.66942 5.15199 1.58504 5.49576C1.36143 6.76014 1.25205 8.04278 1.25828 9.32755C1.25031 10.622 1.3597 11.9144 1.58504 13.1883C1.67807 13.5214 1.85377 13.8244 2.09518 14.068C2.33658 14.3116 2.63553 14.4877 2.96313 14.5791C4.18494 14.9123 9.07218 14.9123 9.07218 14.9123C9.07218 14.9123 13.9594 14.9123 15.1812 14.5791C15.5156 14.4826 15.8191 14.2978 16.0611 14.0435C16.3031 13.7891 16.4749 13.4741 16.5593 13.1304C16.7812 11.8755 16.8906 10.6026 16.8861 9.32755C16.894 8.03311 16.7847 6.74069 16.5593 5.46678V5.46678Z" stroke="white" stroke-linecap="round" stroke-linejoin="round"/>
<path d="M7.47382 11.6962L11.5584 9.3276L7.47382 6.95898V11.6962Z" stroke="white" stroke-linecap="round" stroke-linejoin="round"/>
</g>
<defs>
<clipPath id="clip0_1_1702">
<rect width="17.0485" height="17.3843" fill="white" transform="translate(0.547852 0.816406)"/>
</clipPath>
</defs>
</svg>
